<?xml version="1.0" encoding="UTF-8" standalone="no"?>
<!DOCTYPE svg PUBLIC "-//W3C//DTD SVG 1.1//EN" "http://www.w3.org/Graphics/SVG/1.1/DTD/svg11.dtd">
<svg xmlns="http://www.w3.org/2000/svg" version="1.1" viewBox="0 0 327 162">
<path fill="#e23229" d="
  M 325.32 0.07
  L 326.56 0.00
  Q 326.81 1.95 325.79 3.62
  A 0.99 0.96 -75.3 0 1 325.02 4.09
  L 29.34 24.40
  A 0.52 0.52 0.0 0 1 28.79 23.78
  L 29.34 21.12
  A 0.78 0.78 0.0 0 1 30.05 20.50
  L 325.32 0.07
  Z"
/>
<path fill="#e23229" d="
  M 272.63 105.43
  L 287.25 104.40
  A 0.43 0.43 0.0 0 0 287.64 104.06
  L 293.29 77.40
  A 0.43 0.43 0.0 0 0 292.84 76.88
  L 278.06 77.84
  A 0.43 0.43 0.0 0 1 277.61 77.32
  L 281.11 60.84
  A 0.43 0.43 0.0 0 1 281.50 60.50
  L 296.75 59.42
  A 0.43 0.43 0.0 0 0 297.15 59.08
  L 301.26 39.03
  A 0.43 0.43 0.0 0 0 300.80 38.51
  L 286.20 39.58
  A 0.43 0.43 0.0 0 0 285.81 39.92
  L 283.36 51.91
  A 0.43 0.43 0.0 0 1 282.98 52.25
  L 266.69 53.45
  A 0.43 0.43 0.0 0 1 266.23 52.93
  L 272.21 23.67
  A 0.43 0.43 0.0 0 1 272.61 23.33
  L 321.56 19.93
  A 0.43 0.43 0.0 0 1 322.01 20.45
  L 301.23 120.33
  A 0.43 0.43 0.0 0 1 300.84 120.67
  L 251.86 124.10
  A 0.43 0.43 0.0 0 1 251.41 123.58
  L 258.23 90.86
  A 0.43 0.43 0.0 0 1 258.62 90.52
  L 274.94 89.38
  A 0.43 0.43 0.0 0 1 275.39 89.90
  L 272.18 104.91
  A 0.43 0.43 0.0 0 0 272.63 105.43
  Z
  M 302.38 69.30
  L 293.57 111.32
  A 0.43 0.42 -86.5 0 1 293.18 111.67
  L 263.42 113.75
  A 0.34 0.34 0.0 0 1 263.06 113.34
  L 266.10 98.53
  A 0.69 0.69 0.0 0 0 265.19 97.74
  L 264.58 97.95
  A 0.95 0.95 0.0 0 0 263.97 98.65
  L 260.59 115.05
  A 0.46 0.46 0.0 0 0 261.00 115.61
  Q 262.21 115.72 265.02 115.54
  Q 279.85 114.61 294.78 113.50
  A 0.61 0.61 0.0 0 0 295.34 113.02
  L 312.96 28.81
  A 0.60 0.60 0.0 0 0 312.33 28.09
  L 278.87 30.41
  A 0.69 0.68 3.9 0 0 278.25 30.94
  L 275.30 44.36
  A 0.54 0.53 -85.8 0 0 275.85 45.01
  L 276.79 44.95
  A 0.73 0.72 -85.6 0 0 277.44 44.39
  L 279.95 32.98
  A 0.63 0.63 0.0 0 1 280.51 32.49
  L 310.24 30.33
  A 0.26 0.26 0.0 0 1 310.51 30.64
  L 303.04 65.94
  A 0.74 0.73 3.6 0 1 302.37 66.52
  L 287.63 67.58
  A 0.76 0.75 4.0 0 0 286.94 68.17
  L 286.73 69.06
  A 0.55 0.55 0.0 0 0 287.31 69.73
  L 301.88 68.72
  A 0.48 0.48 0.0 0 1 302.38 69.30
  Z"
/>
<path fill="#e23229" d="
  M 242.11 42.82
  L 230.20 43.61
  A 0.33 0.33 0.0 0 1 229.86 43.21
  L 233.39 26.34
  A 0.33 0.33 0.0 0 1 233.69 26.08
  L 262.97 24.05
  A 0.33 0.33 0.0 0 1 263.32 24.45
  L 242.42 124.46
  A 0.33 0.33 0.0 0 1 242.12 124.72
  L 225.63 125.95
  A 0.33 0.33 0.0 0 1 225.28 125.55
  L 242.45 43.22
  A 0.33 0.33 0.0 0 0 242.11 42.82
  Z
  M 251.25 34.33
  A 0.40 0.40 0.0 0 1 251.67 34.81
  L 234.43 117.01
  A 0.62 0.61 6.6 0 0 235.02 117.75
  L 235.60 117.76
  A 0.80 0.79 6.1 0 0 236.39 117.13
  L 254.05 32.98
  A 0.62 0.62 0.0 0 0 253.40 32.24
  Q 246.82 32.62 240.18 33.21
  C 239.38 33.28 239.13 33.67 238.98 34.39
  A 0.60 0.60 0.0 0 0 239.61 35.12
  L 251.25 34.33
  Z"
/>
<path fill="#f2f2f2" d="
  M 216.62 53.01
  L 210.99 63.69
  A 0.38 0.38 0.0 0 1 210.69 63.89
  L 205.58 64.39
  A 0.38 0.38 0.0 0 1 205.20 63.84
  L 211.22 51.85
  A 0.38 0.38 0.0 0 0 210.85 51.30
  L 206.37 51.71
  A 0.38 0.38 0.0 0 1 205.96 51.30
  L 207.21 36.73
  A 0.38 0.38 0.0 0 1 207.57 36.38
  L 223.33 35.49
  A 0.38 0.38 0.0 0 1 223.73 35.90
  L 221.80 63.05
  A 0.38 0.38 0.0 0 1 221.45 63.40
  L 216.41 63.75
  A 0.38 0.38 0.0 0 1 216.01 63.32
  L 217.33 53.24
  A 0.38 0.38 0.0 0 0 216.62 53.01
  Z
  M 212.59 39.51
  A 0.53 0.53 0.0 0 0 212.11 40.00
  L 211.69 47.24
  A 0.53 0.53 0.0 0 0 212.25 47.80
  L 216.95 47.60
  A 0.53 0.53 0.0 0 0 217.46 47.11
  L 218.05 39.60
  A 0.53 0.53 0.0 0 0 217.47 39.03
  L 212.59 39.51
  Z"
/>
<path fill="#f2f2f2" d="
  M 193.16 60.38
  L 192.21 64.96
  A 0.48 0.48 0.0 0 1 191.78 65.35
  L 186.92 65.70
  A 0.48 0.48 0.0 0 1 186.42 65.11
  L 193.10 37.87
  A 0.48 0.48 0.0 0 1 193.53 37.51
  L 200.54 37.03
  A 0.48 0.48 0.0 0 1 201.05 37.46
  L 203.84 64.13
  A 0.48 0.48 0.0 0 1 203.40 64.66
  L 198.34 65.08
  A 0.48 0.48 0.0 0 1 197.82 64.66
  L 197.29 60.42
  A 0.48 0.48 0.0 0 0 196.82 60.00
  L 193.63 60.00
  A 0.48 0.48 0.0 0 0 193.16 60.38
  Z
  M 196.44 43.49
  C 195.41 47.80 194.22 52.48 193.82 56.86
  A 0.41 0.40 -88.7 0 0 194.24 57.30
  L 196.61 57.20
  A 0.62 0.62 0.0 0 0 197.20 56.57
  L 196.83 43.53
  Q 196.78 42.03 196.44 43.49
  Z"
/>
<path fill="#f2f2f2" d="
  M 174.51 50.03
  A 0.91 0.91 0.0 0 0 176.25 50.45
  L 181.38 38.89
  A 1.09 1.09 0.0 0 1 182.27 38.25
  L 186.74 37.79
  Q 187.60 37.70 187.23 38.48
  L 181.16 51.31
  A 1.15 1.15 0.0 0 0 181.11 52.15
  L 185.43 65.16
  A 0.50 0.50 0.0 0 1 185.00 65.82
  L 180.42 66.19
  A 0.77 0.76 -11.0 0 1 179.61 65.65
  L 176.18 54.81
  A 0.89 0.89 0.0 0 0 175.06 54.23
  C 173.37 54.76 173.34 64.32 173.18 66.20
  A 0.55 0.55 0.0 0 1 172.67 66.70
  L 168.33 66.91
  A 0.54 0.54 0.0 0 1 167.77 66.33
  L 169.77 39.55
  A 0.52 0.52 0.0 0 1 170.27 39.06
  L 174.48 38.85
  A 0.58 0.58 0.0 0 1 175.09 39.47
  L 174.51 50.03
  Z"
/>
<path fill="#f2f2f2" d="
  M 160.40 43.95
  L 156.01 44.30
  A 0.39 0.39 0.0 0 0 155.66 44.66
  L 154.26 63.73
  A 0.39 0.39 0.0 0 0 154.67 64.15
  L 159.12 63.94
  A 0.39 0.39 0.0 0 0 159.49 63.59
  L 160.11 57.76
  A 0.39 0.39 0.0 0 1 160.45 57.42
  L 164.56 57.00
  A 0.39 0.39 0.0 0 1 164.99 57.40
  L 164.62 66.96
  A 0.39 0.39 0.0 0 1 164.26 67.33
  L 148.93 68.42
  A 0.39 0.39 0.0 0 1 148.51 68.00
  L 150.47 40.86
  A 0.39 0.39 0.0 0 1 150.83 40.50
  L 165.93 39.39
  A 0.39 0.39 0.0 0 1 166.35 39.80
  L 165.87 50.32
  A 0.39 0.39 0.0 0 1 165.50 50.69
  L 160.76 50.94
  A 0.39 0.39 0.0 0 1 160.35 50.52
  L 160.83 44.37
  A 0.39 0.39 0.0 0 0 160.40 43.95
  Z"
/>
<path fill="#f2f2f2" d="
  M 140.02 65.28
  L 145.99 64.94
  A 0.45 0.45 0.0 0 1 146.45 65.48
  L 145.94 68.17
  A 0.45 0.45 0.0 0 1 145.54 68.54
  L 133.99 69.43
  A 0.45 0.45 0.0 0 1 133.51 68.95
  L 135.47 41.90
  A 0.45 0.45 0.0 0 1 135.89 41.48
  L 147.71 40.56
  A 0.45 0.45 0.0 0 1 148.20 41.05
  L 147.93 44.21
  A 0.45 0.45 0.0 0 1 147.50 44.62
  L 141.47 44.82
  A 0.45 0.45 0.0 0 0 141.03 45.21
  L 140.23 51.80
  A 0.45 0.45 0.0 0 0 140.70 52.30
  L 145.71 52.11
  A 0.45 0.45 0.0 0 1 146.18 52.60
  L 145.88 56.02
  A 0.45 0.45 0.0 0 1 145.46 56.43
  L 140.28 56.70
  A 0.45 0.45 0.0 0 0 139.85 57.13
  L 139.55 64.81
  A 0.45 0.45 0.0 0 0 140.02 65.28
  Z"
/>
<path fill="#f2f2f2" d="
  M 124.09 63.20
  L 116.32 63.76
  A 0.53 0.53 0.0 0 1 115.75 63.21
  L 116.57 43.32
  A 0.53 0.53 0.0 0 1 117.05 42.81
  L 121.53 42.35
  A 0.53 0.53 0.0 0 1 122.11 42.92
  L 120.93 57.46
  A 0.53 0.53 0.0 0 0 121.46 58.03
  L 124.36 58.00
  A 0.53 0.53 0.0 0 0 124.88 57.51
  L 126.01 42.56
  A 0.53 0.53 0.0 0 1 126.51 42.07
  L 130.93 41.81
  A 0.53 0.53 0.0 0 1 131.49 42.37
  L 129.51 69.20
  A 0.53 0.53 0.0 0 1 129.02 69.69
  L 124.46 69.94
  A 0.53 0.53 0.0 0 1 123.91 69.34
  L 124.65 63.80
  A 0.53 0.53 0.0 0 0 124.09 63.20
  Z"
/>
<path fill="#f2f2f2" d="
  M 101.99 59.27
  C 104.77 52.82 106.37 47.19 108.29 43.83
  A 1.07 1.07 0.0 0 1 109.16 43.30
  L 112.67 43.13
  A 0.50 0.49 -89.5 0 1 113.19 43.66
  L 111.27 70.35
  A 0.68 0.67 -89.5 0 1 110.65 70.97
  L 106.95 71.27
  A 0.55 0.55 0.0 0 1 106.36 70.67
  L 107.54 57.04
  Q 107.72 55.05 106.94 56.89
  L 100.96 71.03
  A 1.02 1.02 0.0 0 1 100.10 71.65
  L 96.50 71.96
  A 0.56 0.55 -0.5 0 1 95.89 71.37
  L 97.92 44.57
  A 0.58 0.58 0.0 0 1 98.45 44.03
  L 102.17 43.74
  A 0.39 0.39 0.0 0 1 102.59 44.16
  L 101.61 59.18
  Q 101.53 60.35 101.99 59.27
  Z"
/>
<path fill="#f2f2f2" d="
  M 76.95 54.00
  L 75.49 72.86
  A 0.67 0.67 0.0 0 1 74.89 73.48
  L 71.57 73.78
  A 0.68 0.67 -0.4 0 1 70.83 73.06
  L 72.77 46.40
  A 0.57 0.57 0.0 0 1 73.28 45.87
  L 78.87 45.30
  A 0.70 0.69 82.7 0 1 79.63 45.89
  L 81.95 62.22
  Q 82.09 63.19 82.35 62.25
  L 87.02 45.47
  A 0.90 0.90 0.0 0 1 87.83 44.81
  L 93.45 44.42
  A 0.42 0.42 0.0 0 1 93.90 44.87
  L 91.96 71.61
  A 0.71 0.70 -5.4 0 1 91.44 72.23
  Q 89.61 72.72 87.65 72.54
  A 0.59 0.59 0.0 0 1 87.12 71.91
  L 88.54 54.05
  Q 88.79 50.94 88.02 53.96
  L 83.38 72.14
  A 0.85 0.84 -85.1 0 1 82.63 72.78
  L 80.09 72.97
  A 0.67 0.66 -5.3 0 1 79.37 72.38
  L 77.17 53.99
  Q 77.04 52.88 76.95 54.00
  Z"
/>
<path fill="#f2f2f2" d="
  M 64.00 50.50
  L 59.82 50.82
  A 0.44 0.44 0.0 0 0 59.42 51.22
  L 57.83 70.53
  A 0.44 0.44 0.0 0 0 58.32 71.01
  L 62.75 70.56
  A 0.44 0.44 0.0 0 0 63.15 70.16
  L 63.74 64.15
  A 0.44 0.44 0.0 0 1 64.18 63.75
  L 68.28 63.75
  A 0.44 0.44 0.0 0 1 68.72 64.22
  L 68.18 73.42
  A 0.44 0.44 0.0 0 1 67.77 73.84
  L 52.66 74.87
  A 0.44 0.44 0.0 0 1 52.19 74.39
  L 54.14 47.44
  A 0.44 0.44 0.0 0 1 54.55 47.04
  L 69.59 46.05
  A 0.44 0.44 0.0 0 1 70.05 46.52
  L 69.31 56.82
  A 0.44 0.44 0.0 0 1 68.90 57.23
  L 64.38 57.56
  A 0.44 0.44 0.0 0 1 63.91 57.08
  L 64.47 50.98
  A 0.44 0.44 0.0 0 0 64.00 50.50
  Z"
/>
<path fill="#f2f2f2" d="
  M 49.15 75.21
  L 33.53 76.17
  A 0.33 0.33 0.0 0 1 33.18 75.81
  L 35.11 48.41
  A 0.33 0.33 0.0 0 1 35.42 48.11
  L 50.89 47.39
  A 0.33 0.33 0.0 0 1 51.24 47.74
  L 49.46 74.90
  A 0.33 0.33 0.0 0 1 49.15 75.21
  Z
  M 45.7911 52.4934
  A 0.26 0.26 0.0 0 0 45.5494 52.2163
  L 40.1818 51.8504
  A 0.26 0.26 0.0 0 0 39.9047 52.0921
  L 38.5689 71.6866
  A 0.26 0.26 0.0 0 0 38.8106 71.9637
  L 44.1782 72.3296
  A 0.26 0.26 0.0 0 0 44.4553 72.0879
  L 45.7911 52.4934
  Z"
/>
<path fill="#f2f2f2" d="
  M 19.51 60.77
  A 0.90 0.90 0.0 0 0 21.23 61.18
  L 26.38 49.53
  A 0.79 0.79 0.0 0 1 27.07 49.06
  L 31.76 48.81
  A 0.39 0.39 0.0 0 1 32.13 49.36
  L 26.13 61.99
  A 1.18 1.15 49.1 0 0 26.08 62.86
  L 30.51 76.07
  A 0.46 0.46 0.0 0 1 30.10 76.67
  L 25.41 76.97
  A 0.83 0.82 -10.3 0 1 24.57 76.39
  L 21.25 65.70
  A 1.01 0.99 80.1 0 0 20.26 64.99
  C 18.15 65.08 18.39 74.75 18.24 76.63
  A 0.73 0.72 89.6 0 1 17.59 77.30
  L 13.28 77.74
  A 0.49 0.49 0.0 0 1 12.74 77.21
  L 14.60 53.32
  A 0.84 0.84 0.0 0 0 14.11 52.50
  L 10.20 50.76
  A 0.32 0.31 -35.0 0 1 10.31 50.16
  L 19.50 49.42
  A 0.56 0.56 0.0 0 1 20.10 50.01
  L 19.51 60.77
  Z"
/>
<path fill="#cccccc" d="
  M 193.12 101.35
  Q 188.98 108.40 185.84 115.95
  A 0.97 0.96 -80.6 0 1 185.01 116.55
  L 178.55 117.07
  Q 177.70 117.14 178.09 116.38
  L 186.68 99.55
  A 0.38 0.38 0.0 0 0 186.31 99.00
  L 180.32 99.42
  A 0.56 0.55 0.4 0 1 179.72 98.82
  L 181.34 80.35
  A 0.52 0.52 0.0 0 1 181.82 79.88
  Q 187.88 79.53 193.89 79.28
  C 195.85 79.20 199.37 78.43 202.23 78.94
  A 0.48 0.47 7.5 0 1 202.62 79.44
  L 200.07 114.92
  A 0.59 0.59 0.0 0 1 199.51 115.48
  L 193.35 115.82
  A 0.68 0.68 0.0 0 1 192.64 115.10
  L 193.61 101.50
  Q 193.69 100.37 193.12 101.35
  Z
  M 188.52 84.33
  A 0.48 0.48 0.0 0 0 188.07 84.76
  L 187.25 93.63
  A 0.48 0.48 0.0 0 0 187.77 94.15
  L 193.66 93.66
  A 0.48 0.48 0.0 0 0 194.10 93.23
  L 195.01 84.51
  A 0.48 0.48 0.0 0 0 194.51 83.98
  L 188.52 84.33
  Z"
/>
<path fill="#cccccc" d="
  M 169.93 97.64
  A 0.18 0.18 0.0 0 0 169.59 97.55
  L 161.07 117.67
  A 0.95 0.95 0.0 0 1 160.24 118.26
  L 155.19 118.55
  A 0.52 0.51 -89.5 0 1 154.65 118.00
  L 157.25 82.39
  A 0.59 0.59 0.0 0 1 157.80 81.85
  L 163.06 81.58
  A 0.52 0.52 0.0 0 1 163.60 82.14
  L 162.05 102.26
  A 0.29 0.28 58.1 0 0 162.60 102.39
  L 170.85 81.62
  A 0.98 0.98 0.0 0 1 171.66 81.01
  L 176.81 80.51
  A 0.51 0.51 0.0 0 1 177.37 81.06
  L 174.69 116.46
  A 1.03 1.03 0.0 0 1 173.72 117.41
  L 169.21 117.65
  A 0.54 0.53 84.2 0 1 168.65 117.19
  Q 168.47 115.89 168.64 113.43
  Q 169.22 105.51 169.93 97.64
  Z"
/>
<path fill="#cccccc" d="
  M 147.43 115.78
  L 150.11 115.66
  A 0.43 0.43 0.0 0 1 150.56 116.11
  L 150.21 124.18
  A 0.43 0.43 0.0 0 1 149.81 124.59
  L 144.96 124.95
  A 0.43 0.43 0.0 0 1 144.50 124.50
  L 144.82 119.68
  A 0.43 0.43 0.0 0 0 144.35 119.22
  L 126.67 120.61
  A 0.43 0.43 0.0 0 1 126.21 120.15
  L 128.77 84.17
  A 0.43 0.43 0.0 0 1 129.17 83.77
  L 135.69 83.29
  A 0.43 0.43 0.0 0 1 136.15 83.74
  L 134.14 114.50
  A 0.43 0.43 0.0 0 0 134.60 114.96
  L 139.24 114.63
  A 0.43 0.43 0.0 0 0 139.64 114.23
  L 142.01 83.21
  A 0.43 0.43 0.0 0 1 142.42 82.81
  L 149.02 82.47
  A 0.43 0.43 0.0 0 1 149.47 82.94
  L 146.99 115.32
  A 0.43 0.43 0.0 0 0 147.43 115.78
  Z"
/>
<path fill="#cccccc" d="
  M 110.09 100.15
  L 114.81 99.62
  A 0.57 0.57 0.0 0 0 115.31 99.10
  L 116.50 85.22
  A 0.57 0.57 0.0 0 1 117.02 84.70
  L 122.88 84.22
  A 0.57 0.57 0.0 0 1 123.49 84.83
  L 120.99 120.45
  A 0.57 0.57 0.0 0 1 120.48 120.98
  L 114.44 121.58
  A 0.57 0.57 0.0 0 1 113.81 120.98
  L 114.85 105.57
  A 0.57 0.57 0.0 0 0 114.23 104.96
  L 109.55 105.31
  A 0.57 0.57 0.0 0 0 109.03 105.83
  L 107.69 121.31
  A 0.57 0.57 0.0 0 1 107.17 121.83
  L 101.29 122.31
  A 0.57 0.57 0.0 0 1 100.67 121.69
  L 103.37 86.16
  A 0.57 0.57 0.0 0 1 103.90 85.64
  L 109.96 85.22
  A 0.57 0.57 0.0 0 1 110.57 85.83
  L 109.46 99.54
  A 0.57 0.57 0.0 0 0 110.09 100.15
  Z"
/>
<path fill="#cccccc" d="
  M 88.08 116.46
  L 83.63 116.79
  A 0.60 0.60 0.0 0 0 83.09 117.27
  L 81.91 123.15
  A 0.60 0.60 0.0 0 1 81.37 123.63
  L 74.88 124.17
  A 0.60 0.60 0.0 0 1 74.25 123.43
  L 83.14 87.25
  A 0.60 0.60 0.0 0 1 83.70 86.80
  L 92.93 86.32
  A 0.60 0.60 0.0 0 1 93.56 86.86
  L 97.13 121.84
  A 0.60 0.60 0.0 0 1 96.57 122.50
  L 89.70 123.01
  A 0.60 0.60 0.0 0 1 89.05 122.44
  L 88.72 117.03
  A 0.60 0.60 0.0 0 0 88.08 116.46
  Z
  M 87.43 94.22
  L 83.78 112.72
  A 0.40 0.40 0.0 0 0 84.21 113.20
  L 87.98 112.89
  A 0.89 0.89 0.0 0 0 88.80 111.96
  L 87.88 94.26
  A 0.23 0.23 0.0 0 0 87.43 94.22
  Z"
/>
<path fill="#cccccc" d="
  M 67.00 124.69
  L 60.91 125.03
  A 0.55 0.55 0.0 0 1 60.33 124.44
  L 62.68 94.02
  A 0.55 0.55 0.0 0 0 62.10 93.43
  L 57.66 93.73
  A 0.55 0.55 0.0 0 1 57.08 93.15
  L 57.30 89.30
  A 0.55 0.55 0.0 0 1 57.81 88.78
  L 75.20 87.48
  A 0.55 0.55 0.0 0 1 75.79 88.07
  L 75.46 92.21
  A 0.55 0.55 0.0 0 1 74.92 92.72
  L 70.36 92.78
  A 0.55 0.55 0.0 0 0 69.82 93.29
  L 67.52 124.18
  A 0.55 0.55 0.0 0 1 67.00 124.69
  Z"
/>
<path fill="#cccccc" d="
  M 38.10 121.79
  L 43.76 121.44
  A 0.47 0.47 0.0 0 0 44.20 121.02
  L 44.98 113.10
  A 0.47 0.47 0.0 0 1 45.41 112.68
  L 51.36 112.17
  A 0.47 0.47 0.0 0 1 51.87 112.68
  L 50.72 125.31
  A 0.47 0.47 0.0 0 1 50.28 125.74
  L 30.53 127.17
  A 0.47 0.47 0.0 0 1 30.03 126.67
  L 32.52 90.70
  A 0.47 0.47 0.0 0 1 32.96 90.27
  L 52.86 89.09
  A 0.47 0.47 0.0 0 1 53.35 89.59
  L 52.43 103.51
  A 0.47 0.47 0.0 0 1 51.99 103.94
  L 46.09 104.30
  A 0.47 0.47 0.0 0 1 45.60 103.81
  L 45.99 95.47
  A 0.47 0.47 0.0 0 0 45.50 94.98
  L 39.69 95.33
  A 0.47 0.47 0.0 0 0 39.25 95.77
  L 37.60 121.29
  A 0.47 0.47 0.0 0 0 38.10 121.79
  Z"
/>
<path fill="#e23229" d="
  M 1.94 162.00
  L 0.44 162.00
  Q 0.23 160.13 1.05 158.54
  A 0.93 0.92 -77.9 0 1 1.79 158.05
  Q 147.87 147.98 293.94 137.91
  Q 296.57 137.73 297.77 137.78
  A 0.44 0.44 0.0 0 1 298.18 138.30
  L 297.71 140.66
  A 1.27 1.26 -86.1 0 1 296.55 141.68
  L 1.94 162.00
  Z"
/>
</svg>
